# xmcd
#
# Track frame offsets:
#	150
#	19008
#	34690
#	59182
#	72272
#	87952
#	105848
#	123683
#	139053
#	157288
#
# Disc length: 2281 seconds
#
# Revision: 0
# Processed by: cddbd v1.5.2PL0 Copyright (c) Steve Scherf et al.
# Submitted via: audiograbber 1.83.01
#
DISCID=8c08e70a
DTITLE=Michael Martin Murphey - Americana
DYEAR=1987
DGENRE=Country
TTITLE0=A Face In The Crowd (With Holly Dunn)
TTITLE1=A Long Line Of Love
TTITLE2=Once Upon A Time
TTITLE3=Out Of Touch
TTITLE4=Almost Free
TTITLE5=Worlds Apart
TTITLE6=No One Else But You
TTITLE7=You're History
TTITLE8=My Darling Wherever You Are
TTITLE9=I'm Never Gonna Let You Go
EXTD=
EXTT0=
EXTT1=
EXTT2=
EXTT3=
EXTT4=
EXTT5=
EXTT6=
EXTT7=
EXTT8=
EXTT9=
PLAYORDER=
